<?xml version="1.0" encoding="utf-8"?>
<!-- Generator: Adobe Illustrator 19.2.1, SVG Export Plug-In . SVG Version: 6.00 Build 0)  -->
<svg version="1.1" id="Layer_1" xmlns="http://www.w3.org/2000/svg" xmlns:xlink="http://www.w3.org/1999/xlink" x="0px" y="0px"
	 viewBox="0 0 612 124.1" style="enable-background:new 0 0 612 124.1;" xml:space="preserve">
<style type="text/css">
	.st0{fill:#15232D;}
	.st1{fill:#5BC9EE;}
	.st2{fill:#00ABE4;}
	.st3{fill:#448CBA;}
</style>
<g id="Background">
	<g>
		<rect x="399.5" y="44.2" class="st0" width="10.6" height="79.4"/>
		<path class="st0" d="M365.3,124.5c-11.9,0-22.1-3.8-29.5-10.9c-7.3-7-11.4-17.4-11.4-28.5s4.2-21.5,11.4-28.5
			c7.4-7.1,17.6-10.9,29.5-10.9c8.8,0,15.1,1.4,22.1,5l-3.9,9c-5.9-3.1-10.6-4.1-17.7-4.1c-9,0-16.6,2.8-21.9,8s-8.3,13-8.3,21.5
			s3,16.3,8.3,21.5c5.4,5.2,12.9,8,21.9,8c7,0,11.8-1.1,17.7-4.2l3.9,9C380.4,123.1,374.1,124.5,365.3,124.5z"/>
		<path class="st0" d="M200.7,124.8c-6.4,0-11.4-1.6-14.7-4.8c-3.4-3.3-5.1-8.2-5.1-14.8v-55h10.6v16.6h17.6v9h-17.6v25.9
			c0,5.9,0.7,9.4,2.3,11.5c1.8,2.2,4.8,2.5,7.7,2.5c0.8,0,1.7-0.1,2.7-0.2c0.9-0.1,1.9-0.3,2.8-0.5l0.6-0.1l1.3,9.2l-0.6,0.1
			c-1.2,0.2-2.5,0.4-3.9,0.5C203,124.7,201.7,124.8,200.7,124.8z"/>
		<path class="st0" d="M157.5,125c-6.4,0-11.4-1.6-14.7-4.8c-3.4-3.3-5.1-8.3-5.1-14.8v-55h10.6V67h17.5v9h-17.5v25.9
			c0,5.9,0.7,9.5,2.4,11.4c1.8,2.2,4.7,2.5,7.7,2.5c0.8,0,1.7-0.1,2.7-0.2c0.9-0.1,1.9-0.3,2.8-0.5l0.6-0.1l1.3,9.2l-0.6,0.1
			c-1.2,0.2-2.6,0.4-3.9,0.5C159.9,124.9,158.5,125,157.5,125z"/>
		<path class="st0" d="M12.6,79.3h15.1c5.3,0,9.5-1,12.4-3.1c2.8-2,4.3-4.9,4.3-8.4c0-3.6-1.4-6.4-4.2-8.2s-7-2.7-12.6-2.7h-15
			C12.6,56.9,12.6,79.3,12.6,79.3z M12.6,114h16.5c12.7,0,19.1-4.2,19.1-12.5S41.8,89,29.1,89H12.6V114z M1.5,123.7V47.5H29
			c7.8,0,14.4,1.9,19.1,5.5c4.8,3.7,7.4,8.8,7.4,14.9c0,3.4-1,6.7-2.8,9.4c-1.2,1.9-2.8,3.5-4.7,4.8l-1.4,1l1.5,0.8
			c3.1,1.6,5.6,3.6,7.5,6.1c2.5,3.3,3.7,7.1,3.7,11.5c0,7-2.6,12.5-7.7,16.4c-5,3.8-12.2,5.8-21.1,5.8L1.5,123.7L1.5,123.7z"/>
		<path class="st0" d="M517.8,124.6c-7.3,0-13.9-2.5-18-6.9c-4.3-4.5-6.4-10.9-6.4-19.2v-32H504v32.2c0,5.8,1.3,10,3.8,12.7
			c2.4,2.5,6.4,4,11.1,4l0,0c3.2,0,6.4-0.7,8.9-1.8c2.4-1.1,4.5-2.6,6-4.5l0.2-0.3V66.5h10.6v56.8H534v-3.7l-1.5,1
			c-1.6,1-3.3,1.9-5.2,2.5C524.4,124.1,521.1,124.6,517.8,124.6z"/>
		<path class="st0" d="M586,74.4c-5.3,0-10,2-13,5.5c-6.3,7.3-6.3,22.7,0,30c3,3.5,7.8,5.5,13,5.5c2.9,0,5.8-0.6,8.4-1.8
			c2.4-1.1,4.4-2.5,6-4.4l0.2-0.3v-28l-0.2-0.3c-1.6-1.9-3.7-3.4-6-4.4C591.9,75,589,74.4,586,74.4z M585,124.6
			c-7.7,0-15-3-19.9-8.4c-10.2-11-10.2-31.6,0-42.6c4.9-5.3,12.2-8.4,19.9-8.4c3.2,0,6.2,0.5,9.2,1.5c1.8,0.6,3.5,1.4,5,2.4l1.5,0.9
			V43.8h10.6v79.5h-10.6v-3.5l-1.5,0.9c-1.5,1-3.2,1.8-5,2.4C591.3,124.1,588.2,124.6,585,124.6z"/>
		<path class="st0" d="M98,74.6c-4.4,0-8.5,1.6-11.2,4.4c-2.4,2.5-4,6-4.6,10.3L82,90.4h31.8l-0.2-1.1c-0.6-4.2-2.2-7.8-4.6-10.3
			C106.4,76.2,102.4,74.6,98,74.6z M100.7,124.8c-8.9,0-16.3-2.8-21.5-8c-5.3-5.3-8.1-12.9-8.1-21.8c0-8.7,2.5-16.1,7.3-21.4
			c4.7-5.2,11.9-8.2,19.6-8.2s14.8,3,19.5,8.2c4.8,5.3,7.3,12.9,7.3,21.9v1.7l-0.1,1.7l-0.1,0.5H82.1l0.2,1.2
			c0.7,4.3,2.5,7.9,5.4,10.5c3.3,3,7.9,4.5,13.2,4.5c7.2,0,11.8-1.2,16-4.1l4.2,7.8C115.5,123,109,124.8,100.7,124.8z"/>
		<path class="st0" d="M246.7,74.6c-4.4,0-8.5,1.6-11.2,4.4c-2.4,2.5-4,6-4.6,10.3l-0.1,1.1h31.8l-0.1-1.1
			c-0.6-4.2-2.1-7.8-4.6-10.3C255.1,76.2,251.1,74.6,246.7,74.6z M249.4,124.8c-8.9,0-16.3-2.8-21.5-8c-5.3-5.3-8.1-12.9-8.1-21.8
			c0-8.7,2.5-16.1,7.4-21.4c4.7-5.2,11.9-8.2,19.6-8.2c7.7,0,14.8,3,19.5,8.2c4.8,5.3,7.3,12.9,7.3,21.9v1.7l-0.1,1.7l-0.1,0.5
			h-42.6l0.2,1.2c0.7,4.3,2.6,7.9,5.4,10.5c3.3,3,7.9,4.5,13.2,4.5c7.2,0,11.8-1.2,16-4.1l4.2,7.8c-3.2,2.1-6,3.3-9.9,4.3
			C256.7,124.3,253.2,124.8,249.4,124.8z"/>
		<path class="st0" d="M451.7,74.8c-5.3,0-10,2-13.1,5.5c-6.4,7.3-6.4,22.8,0,30.1c3,3.5,7.8,5.5,13.1,5.5s10-2,13.1-5.5
			c6.4-7.3,6.4-22.8,0-30.1C461.7,76.8,457,74.8,451.7,74.8z M451.7,125.1c-8.1,0-15.7-3-20.8-8.2c-10.7-11.1-10.7-32,0-43
			c5.1-5.2,12.6-8.2,20.7-8.2s15.7,3,20.8,8.2c10.7,11.1,10.7,32,0,43C467.4,122.1,459.8,125.1,451.7,125.1z"/>
		<path class="st0" d="M298.5,70.5l-1.6,1.3v-5h-10.6v56.7h10.6V84.7l0.1-0.2c2.5-5.7,8.4-9.2,16.4-9.8c0.3-3.3,1-6.5,1.9-9.6
			C308.4,65.4,302.2,67.4,298.5,70.5z"/>
		<path class="st1" d="M194.3,32.3c-16.4-13.5-27.9-9.7-32.1-8.9c-9.7,1.9-18.6,14.9-18.5,15l0,0c14.2-20.2,35.1-11.6,43.9,0.9
			c4.2-5.6,68.9-56.3,125.2,3.6c0.1,0.1,0.6,0.6,0.7,0.4c5.1-0.2,13.8-0.1,18.8-0.2c-5.6-6.7-13.6-16-23.5-22.2
			C283.5,5.2,238.4-4.2,194,32.6L194.3,32.3z"/>
		<path class="st2" d="M354.6,30.5c-14.6-19-47.8-32.4-66.3-26c16.9-3.3,49.8,19.2,52.5,25.7c0.1,0.1,0,0,0.1,0
			C344.2,30.2,351.2,30.3,354.6,30.5C350.9,25.5,354.8,30.7,354.6,30.5z"/>
		<path class="st3" d="M374.4,24C364.1,6.1,335.2-1.9,322.8,1.9c11.2-1.6,34.1,10.6,41.1,21.8c0,0-1,0-0.9,0
			c2.1,0.2,9.3-0.1,11.5,0.2C372.3,20.1,374.4,24,374.4,24z"/>
	</g>
</g>
<g id="Layer_1_1_">
</g>
</svg>
